<?xml version="1.0" encoding="UTF-8"?>
<svg width="62px" height="35px" viewBox="0 0 62 35" version="1.1" xmlns="http://www.w3.org/2000/svg" xmlns:xlink="http://www.w3.org/1999/xlink">
    <title>Group 8</title>
    <g id="Page-1" stroke="none" stroke-width="1" fill="none" fill-rule="evenodd">
        <g id="Group-8">
            <rect id="Rectangle" fill="#7CB1FF" x="32" y="13" width="30" height="3"></rect>
            <path d="M11.9675926,30 C10.2499948,29.8696941 9.06172321,29.6196941 8.40277778,29.25 C7.74383235,28.8803059 7.14969655,28.1303059 6.62037037,27 L6.62037037,16.5 L0,16.5 L0,13.25 L5.60185185,7 L8.91203704,7 L10.6944444,5 L18.8425926,5 L20.625,7 L24,6.5 L29,12.5 L28.5185185,16.5 L14.2592593,7.5 C13.1841564,7.16666667 12.4202675,7 11.9675926,7 C11.5149177,7 10.9207819,7.16666667 10.1851852,7.5 C9.73916405,7.73856571 9.39965787,7.98856571 9.16666667,8.25 C8.93367546,8.51143429 8.67904583,8.92810096 8.40277778,9.5 L8.40277778,26.25 C8.58575705,27.0671965 8.84038668,27.6505299 9.16666667,28 C9.49294665,28.3494701 10.171959,28.6828035 11.2037037,29 L14.0046296,29 L28.7731481,19.25 L28.7731481,18 L33.1018519,18 L33.1018519,23.5 C32.6414148,24.1109271 32.2170321,24.5275938 31.8287037,24.75 C31.2462112,25.0836094 30.5485023,24.9212833 30.0462963,25.25 C29.7114923,25.4691444 29.5417392,25.8024778 29.537037,26.25 C29.4464835,26.5536976 29.7011132,26.8036976 30.3009259,27 C30.9007387,27.1963024 31.6646276,27.1963024 32.5925926,27 C33.3001889,26.6245702 33.8094482,26.2079035 34.1203704,25.75 C34.4312925,25.2920965 34.7707987,24.5420965 35.1388889,23.5 L35.1388889,17.5 L39.212963,17.5 L39.212963,23.25 C38.8509634,23.8343342 38.5114572,24.2510009 38.1944444,24.5 C37.8774317,24.7489991 37.3681724,24.9989991 36.6666667,25.25 C36.047407,25.515335 35.7079008,25.765335 35.6481481,26 C35.6086592,26.1550841 35.4871617,26.6859358 35.6481481,27 C35.7032213,27.1074408 35.8729744,27.1907741 36.1574074,27.25 C37.2478522,27.564059 38.1814942,27.564059 38.9583333,27.25 C40.1235921,26.7789114 40.0852664,26.1559277 40.4861111,25.5 C40.7533409,25.0627149 41.0079705,24.3960482 41.25,23.5 L41.25,17.25 L45.3240741,17.25 L45.3240741,23.75 C44.8341994,24.3777868 44.4098167,24.7944535 44.0509259,25 C43.6920352,25.2055465 43.0978994,25.3722132 42.2685185,25.5 C41.8293433,25.8241676 41.6595902,26.157501 41.7592593,26.5 C41.8589283,26.842499 42.1984345,27.092499 42.7777778,27.25 C43.3170685,27.5715392 43.9960808,27.5715392 44.8148148,27.25 C46.0429158,26.7676912 46.1704315,26.3785463 46.5972222,25.75 C46.8817493,25.3309691 47.136379,24.5809691 47.3611111,23.5 L47.3611111,17.5 L51.4351852,17.5 L51.4351852,23.75 C50.9266084,24.388498 50.5022257,24.8051647 50.162037,25 C49.8218484,25.1948353 49.2277126,25.361502 48.3796296,25.5 C48.0401235,25.75 47.8703704,26 47.8703704,26.25 C47.8703704,26.5 48.0401235,26.75 48.3796296,27 C49.0713902,27.3078063 49.8352791,27.3078063 50.6712963,27 C51.9253221,26.5382905 51.9770449,26.0530818 52.4537037,25.5 C52.7714763,25.1312788 53.1109824,24.5479455 53.4722222,23.75 L53.4722222,17.5 L55,17.5 L55,27 C54.6998614,27.8256803 54.3603552,28.4090136 53.9814815,28.75 C53.6026078,29.0909864 52.9235954,29.4243197 51.9444444,29.75 L32.0833333,29.5 L32.0833333,31.5 L49.9074074,31.5 C49.5766055,32.6011408 49.2370993,33.3511408 48.8888889,33.75 C48.5406785,34.1488592 47.8616661,34.5655259 46.8518519,35 L15.2777778,35 C14.2349963,34.6428448 13.5559839,34.3095115 13.2407407,34 C12.9254976,33.6904885 12.6708679,33.1071552 12.4768519,32.25 L12.2222222,30 L11.9675926,30 Z" id="Path-3" fill="#7CB1FF"></path>
            <polygon id="Path-5" fill="#7CB1FF" points="25 4 30.7902098 12 61 12 54.958042 4"></polygon>
            <ellipse id="Oval" fill="#FFFFFF" transform="translate(32.876159, 8.587548) rotate(61.000000) translate(-32.876159, -8.587548) " cx="32.8761589" cy="8.58754758" rx="2.79872785" ry="2.03543844"></ellipse>
            <ellipse id="Oval" fill="#FFFFFF" transform="translate(39.491334, 8.587548) rotate(61.000000) translate(-39.491334, -8.587548) " cx="39.4913338" cy="8.58754758" rx="2.79872785" ry="2.03543844"></ellipse>
            <ellipse id="Oval" fill="#FFFFFF" transform="translate(46.106509, 8.587548) rotate(61.000000) translate(-46.106509, -8.587548) " cx="46.1065087" cy="8.58754758" rx="2.79872785" ry="2.03543844"></ellipse>
            <ellipse id="Oval" fill="#FFFFFF" transform="translate(52.721684, 8.587548) rotate(61.000000) translate(-52.721684, -8.587548) " cx="52.7216836" cy="8.58754758" rx="2.79872785" ry="2.03543844"></ellipse>
            <path d="M56,4.5706915 L21.578902,4.5706915 L20.8024863,3.80890959 L10.7090816,3.80890959 L9.15625013,5.58640073 C8.43025747,6.13786642 7.82637856,6.13786642 7.3446134,5.58640073 C6.62196566,4.75920218 7.19773071,4.42808535 7.60341865,3.80890959 C7.87387727,3.39612575 8.5640246,2.8036287 9.67386063,2.03141845 L12.0031079,2.03141845 L12.0031079,0 L52.1179213,0 L52.1179213,1.77749114 C52.8140384,1.69577734 53.4179173,1.78041977 53.929558,2.03141845 C54.4411987,2.28241712 55.0450776,2.79027173 55.7411948,3.55498228 L56,4.5706915 Z" id="Path-6" fill="#7CB1FF"></path>
            <circle id="Oval" fill="#7CB1FF" cx="12.5" cy="11.5" r="2.5"></circle>
            <circle id="Oval" fill="#7CB1FF" cx="25.6078017" cy="18.1358627" r="1.5"></circle>
            <circle id="Oval" fill="#7CB1FF" cx="13" cy="25" r="3"></circle>
            <path d="M10.1281722,21.2260051 L10.1281722,14.7644667 L13.9463541,14.7644667 C14.674836,14.2960094 15.1839269,13.8472915 15.4736268,13.4183128 C15.7633266,12.9893342 16.1027206,12.1816419 16.4918086,10.9952359 L23.8736268,15.8413898 C23.3385533,16.3161296 22.9991593,16.6751039 22.855445,16.9183128 C22.7117306,17.1615218 22.6268821,17.5204961 22.6008995,17.9952359 L22.6008995,19.3413898 C22.5933485,20.0201062 22.678197,20.4688242 22.855445,20.6875436 C23.0326929,20.9062631 23.4569354,21.0857502 24.1281722,21.2260051 L17.255445,24.9952359 C16.7968945,23.8240073 16.3726521,23.016315 15.9827177,22.572159 C15.5927833,22.128003 14.9139955,21.679285 13.9463541,21.2260051 L10.1281722,21.2260051 Z" id="Path-7" fill="#7CB1FF"></path>
        </g>
    </g>
</svg>